# AST/ASF file generated using VICON BodyLanguage
# -----------------------------------------------
:version 1.10
:name VICON
:units
  mass 1.0
  length 0.45
  angle deg
:documentation
   .ast/.asf automatically generated from VICON data using
   VICON BodyBuilder and BodyLanguage model FoxedUp or BRILLIANT.MOD
:root
   order TX TY TZ RX RY RZ
   axis XYZ
   position 0 0 0  
   orientation 0 0 0 
:bonedata
  begin
     id 1 
     name lhipjoint
     direction 0.561001 -0.76473 0.316963 
     length 2.4722 
     axis 0 0 0  XYZ
  end
  begin
     id 2 
     name lfemur
     direction 0.34202 -0.939693 0  
     length 7.59403  
     axis 0 0 20  XYZ
    dof rx ry rz
    limits (-160.0 20.0)
           (-70.0 70.0)
           (-60.0 70.0)
  end
  begin
     id 3 
     name ltibia
     direction 0.34202 -0.939693 0   
     length 7.89655   
     axis 0 0 20   XYZ
    dof rx
    limits (-10.0 170.0)
  end
  begin
     id 4 
     name lfoot
     direction 0.061296 -0.168409 0.98381   
     length 2.73287   
     axis -90 7.62852e-016 20   XYZ
    dof rx rz
    limits (-45.0 90.0)
           (-70.0 20.0)
  end
  begin
     id 5 
     name ltoes
     direction 1.53547e-011 -4.21984e-011 1   
     length 1.37057   
     axis -90 7.62852e-016 20   XYZ
    dof rx
    limits (-90.0 20.0)
  end
  begin
     id 6 
     name rhipjoint
     direction -0.559611 -0.765599 0.317323   
     length 2.46939  
     axis 0 0 0  XYZ 
  end
  begin
     id 7 
     name rfemur
     direction -0.34202 -0.939693 0   
     length 7.53712   
     axis 0 0 -20   XYZ
    dof rx ry rz
    limits (-160.0 20.0)
           (-70.0 70.0)
           (-70.0 60.0)
  end
  begin
     id 8 
     name rtibia
     direction -0.34202 -0.939693 0   
     length 8.12549   
     axis 0 0 -20   XYZ
    dof rx
    limits (-10.0 170.0)
 end
 begin
     id 9 
     name rfoot
     direction -0.066984 -0.184037 0.980634   
     length 2.67541  
     axis -90 -7.62852e-016 -20   XYZ
    dof rx rz
    limits (-45.0 90.0)
           (-20.0 70.0)
  end
  begin
     id 10 
     name rtoes
     direction -1.53549e-011 -4.21786e-011 1   
     length 1.34085   
     axis -90 -7.62852e-016 -20   XYZ
    dof rx
    limits (-90.0 20.0)
  end
  begin
     id 11 
     name lowerback
     direction -0.0522728 0.992594 -0.109658   
     length 2.05633   
     axis 0 0 0   XYZ
    dof rx ry rz
    limits (-20.0 45.0)
           (-30.0 30.0)
           (-30.0 30.0)
  end
  begin
     id 12 
     name upperback
     direction 0.00589338 0.999977 0.00335704   
     length 2.05845   
     axis 0 0 0   XYZ
    dof rx ry rz
    limits (-20.0 45.0)
           (-30.0 30.0)
           (-30.0 30.0)
  end
  begin
     id 13 
     name thorax
     direction 0.0292928 0.998059 0.0549487   
     length 2.09281   
     axis 0 0 0   XYZ
    dof rx ry rz
    limits (-20.0 45.0)
           (-30.0 30.0)
           (-30.0 30.0)
  end
  begin
     id 14 
     name lowerneck
     direction 0.0356368 0.980775 0.191858   
     length 1.84767   
     axis 0 0 0   XYZ
    dof rx ry rz
    limits (-20.0 45.0)
           (-30.0 30.0)
           (-30.0 30.0)
  end
  begin
     id 15 
     name upperneck
     direction -0.0227605 0.98931 -0.14404   
     length 1.89582   
     axis 0 0 0   XYZ
    dof rx ry rz
    limits (-20.0 45.0)
           (-30.0 30.0)
           (-30.0 30.0)
  end
  begin
     id 16
     name head
     direction -0.00932985 0.997511 -0.0698904  
     length 1.90213  
     axis 0 0 0   XYZ
    dof rx ry rz
    limits (-20.0 45.0)
           (-30.0 30.0)
           (-30.0 30.0)
  end
  begin
     id 17 
     name lclavicle
     direction 0.873442 0.479511 0.0846686  
     length 3.41193  
     axis 0 0 0   XYZ
    dof ry rz
    limits (-20.0 10.0)
           (0.0 20.0)
  end
  begin
     id 18 
     name lhumerus
     direction 1 -4.4897e-011 -5.62117e-018   
     length 5.59864   
     axis 180 -30 -90   XYZ
    dof rx ry rz
    limits (-60.0 90.0)
           (-90.0 90.0)
           (-90.0 90.0)
  end
  begin
     id 19
     name lradius
     direction 1 -4.48966e-011 -6.26295e-027   
     length 3.59542   
     axis 180 -30 -90   XYZ
    dof rx
    limits (-10.0 170.0)
  end
  begin
     id 20
     name lwrist
     direction 1 -4.48947e-011 -1.74096e-026   
     length 1.79771   
     axis 1.04567e-014 90 90   XYZ
    dof ry
    limits (-180.0 0.0)
 end
  begin
     id 21 
     name lhand
     direction 1 -4.49085e-011 -3.48469e-026   
     length 0.572014   
     axis 2.22196e-014 90 90   XYZ
    dof rx rz
    limits (-90.0 90.0)
           (-45.0 45.0)
  end
  begin
     id 22 
     name lfingers
     direction 1 -4.48884e-011 -6.96135e-026   
     length 0.461173   
     axis 4.44383e-014 90 90   XYZ
    dof rx
    limits (0.0 90.0)
  end
  begin
     id 23
     name lthumb
     direction 0.707107 -6.34976e-011 0.707107   
     length 0.662154   
     axis -90 45 -5.4397e-014   XYZ
    dof rx rz
    limits (-45.0 45.0)
           (-45.0 45.0)
  end
  begin
     id 24 
     name rclavicle
     direction -0.890242 0.443271 0.104786   
     length 3.46753  
     axis 0 0 0   XYZ 
    dof ry rz
    limits (-10.0 20.0)
           (-20.0 0.0)
  end
  begin
     id 25 
     name rhumerus
     direction -1 -4.48963e-011 -5.41723e-018  
     length 5.8094   
     axis 180 30 90   XYZ
    dof rx ry rz
    limits (-90.0 60.0)
           (-90.0 90.0)
           (-90.0 90.0)
  end
  begin
     id 26 
     name rradius
     direction -1 -4.48958e-011 -6.51059e-027   
     length 3.66953   
     axis 180 30 90   XYZ
    dof rx
    limits (-10.0 170.0)
  end
  begin
     id 27 
     name rwrist
     direction -1 -4.48975e-011 -1.74124e-026   
     length 1.83476   
     axis 1.04567e-014 -90 -90   XYZ
    dof ry
    limits (-180.0 0.0)
  end
  begin
     id 28
     name rhand
     direction -1 -4.49013e-011 -3.48326e-026   
     length 0.57843   
     axis 2.22196e-014 -90 -90   XYZ
    dof rx rz
    limits (-90.0 90.0)
           (-45.0 45.0)
  end
  begin
     id 29
     name rfingers
     direction -1 -4.49023e-011 -6.9669e-026   
     length 0.466345   
     axis 4.44383e-014 -90 -90   XYZ
    dof rx
    limits (0.0 90.0)
  end
  begin
     id 30
     name rthumb
     direction -0.707107 -6.34926e-011 0.707107   
     length 0.669581   
     axis -90 -45 5.4397e-014   XYZ
    dof rx rz
    limits (-45.0 45.0)
           (-45.0 45.0)
  end
:hierarchy
  begin
    root lhipjoint rhipjoint lowerback
    lhipjoint lfemur
    lfemur ltibia
    ltibia lfoot
    lfoot ltoes
    rhipjoint rfemur
    rfemur rtibia
    rtibia rfoot
    rfoot rtoes
    lowerback upperback
    upperback thorax
    thorax lowerneck lclavicle rclavicle
    lowerneck upperneck
    upperneck head
    lclavicle lhumerus
    lhumerus lradius
    lradius lwrist
    lwrist lhand lthumb
    lhand lfingers
    rclavicle rhumerus
    rhumerus rradius
    rradius rwrist
    rwrist rhand rthumb
    rhand rfingers
  end

#!OML:ASF H:\SkateBoarding\Project 1\Capture day 1\Session 1\Skater.ASF
:FULLY-SPECIFIED
:DEGREES
142
root 5.19301 18.3007 1.68369 -4.11859 20.2251 -0.703213
lowerback 12.3739 -1.70481 -1.07672
upperback 0.24728 -2.33241 1.16106
thorax -6.59219 -1.08497 2.24692
lowerneck -14.5235 0.123075 2.19707
upperneck 35.9103 -0.167692 -0.423546
head 14.8892 0.240859 -0.57476
rclavicle -3.59055e-015 9.14409e-015
rhumerus -29.6387 4.084 -83.563
rradius 40.7761
rwrist -14.4139
rhand -41.5212 0.0418008
rfingers 7.12502
rthumb -14.4338 -29.4363
lclavicle -3.59055e-015 9.14409e-015
lhumerus -29.0264 -11.0352 86.4819
lradius 50.7427
lwrist 34.1888
lhand -25.1325 17.9771
lfingers 7.12502
lthumb 1.38361 47.9524
rfemur -34.9895 14.2704 12.7516
rtibia 54.0096
rfoot -9.75698 14.6289
rtoes 1.22974
lfemur -16.7682 -26.2233 -13.28
ltibia 18.0374
lfoot -16.7836 -16.3488
ltoes 8.81514
143
root 5.23382 18.2487 1.89269 -4.64923 20.093 -0.886179
lowerback 12.6445 -1.80687 -1.10785
upperback 0.395494 -2.47529 1.12853
thorax -6.58032 -1.15496 2.26229
lowerneck -14.538 0.1272 2.22225
upperneck 35.8674 -0.193458 -0.37725
head 14.8721 0.236638 -0.564791
rclavicle 1.56729e-014 6.16232e-015
rhumerus -29.8383 4.27749 -83.8608
rradius 40.9129
rwrist -14.5854
rhand -41.5333 0.0312982
rfingers 7.12502
rthumb -14.4455 -29.4459
lclavicle 1.56729e-014 6.16232e-015
lhumerus -28.6681 -10.9545 86.6268
lradius 49.8567
lwrist 33.7016
lhand -24.9099 17.8469
lfingers 7.12502
lthumb 1.59863 47.8206
rfemur -35.1262 14.0453 12.6747
rtibia 54.1884
rfoot -9.08403 14.5457
rtoes 1.57954
lfemur -17.1975 -26.1124 -13.4807
ltibia 18.9253
lfoot -15.932 -15.0033
ltoes 8.49945
144
root 5.2745 18.2031 2.09627 -5.24029 19.9774 -1.08376
lowerback 12.9537 -1.90419 -1.12161
upperback 0.5546 -2.6098 1.09003
thorax -6.57961 -1.22127 2.26212
lowerneck -14.5302 0.121514 2.24452
upperneck 35.7978 -0.229292 -0.337944
head 14.837 0.226534 -0.558742
rclavicle 4.98577e-014 -6.65929e-015
rhumerus -30.0769 4.437 -84.1456
rradius 41.0722
rwrist -14.7827
rhand -41.5336 0.000172936
rfingers 7.12502
rthumb -14.4459 -29.477
lclavicle 4.98577e-014 -6.65929e-015
lhumerus -28.283 -10.9127 86.7766
lradius 48.9288
lwrist 33.1205
lhand -24.6274 17.6947
lfingers 7.12502
lthumb 1.87139 47.6663
rfemur -35.1397 13.7923 12.6247
rtibia 54.2351
rfoot -8.36075 14.3843
rtoes 1.90774
lfemur -17.4852 -25.5185 -13.8121
ltibia 20.147
lfoot -14.6959 -13.2373
ltoes 7.57181
145
root 5.31473 18.163 2.29415 -5.89007 19.87 -1.29437
lowerback 13.3024 -1.99182 -1.12305
upperback 0.723276 -2.72989 1.04785
thorax -6.5918 -1.28066 2.25072
lowerneck -14.4869 0.104075 2.25835
upperneck 35.6957 -0.276438 -0.303812
head 14.7781 0.209446 -0.55502
rclavicle -4.05893e-014 -1.78906e-015
rhumerus -30.3469 4.5523 -84.4155
rradius 41.24
rwrist -14.9847
rhand -41.5335 -0.037238
rfingers 7.12502
rthumb -14.4457 -29.5145
lclavicle -4.05893e-014 -1.78906e-015
lhumerus -27.8645 -10.8989 86.9366
lradius 47.9497
lwrist 32.439
lhand -24.2811 17.4906
lfingers 7.12502
lthumb 2.2059 47.459
rfemur -35.0429 13.5356 12.6
rtibia 54.1682
rfoot -7.6079 14.1418
rtoes 2.20298
lfemur -17.6287 -24.4777 -14.2453
ltibia 21.6909
lfoot -13.1351 -11.3077
ltoes 5.90029
146
root 5.35395 18.1262 2.48729 -6.59068 19.7621 -1.51244
lowerback 13.6794 -2.06443 -1.12454
upperback 0.901055 -2.83014 1.0033
thorax -6.61068 -1.33018 2.23495
lowerneck -14.3939 0.0725884 2.24704
upperneck 35.5603 -0.336723 -0.263249
head 14.692 0.183922 -0.546088
rclavicle -8.0865e-014 2.88238e-015
rhumerus -30.6386 4.60562 -84.6694
rradius 41.3962
rwrist -15.1703
rhand -41.5353 -0.0726702
rfingers 7.12502
rthumb -14.4474 -29.5498
lclavicle -8.0865e-014 2.88238e-015
lhumerus -27.4084 -10.9068 87.1063
lradius 46.9104
lwrist 31.6482
lhand -23.8775 17.2383
lfingers 7.12502
lthumb 2.59564 47.2023
rfemur -34.8587 13.2991 12.5973
rtibia 54.0106
rfoot -6.85208 13.8094
rtoes 2.42924
lfemur -17.6249 -23.1241 -14.7222
ltibia 23.4762
lfoot -11.3811 -9.57829
ltoes 3.53676
147
root 5.3919 18.089 2.67732 -7.32007 19.6404 -1.72332
lowerback 14.0624 -2.11391 -1.13774
upperback 1.08592 -2.90183 0.953162
thorax -6.62583 -1.3655 2.21515
lowerneck -14.2535 0.0245845 2.2048
upperneck 35.4054 -0.413714 -0.211599
head 14.5862 0.148487 -0.529607
rclavicle -1.81069e-014 -1.47846e-015
rhumerus -30.9431 4.57316 -84.905
rradius 41.5208
rwrist -15.3219
rhand -41.5399 -0.103486
rfingers 7.12502
rthumb -14.4519 -29.5803
lclavicle -1.81069e-014 -1.47846e-015
lhumerus -26.9074 -10.9358 87.2855
lradius 45.7982
lwrist 30.7469
lhand -23.4403 16.9127
lfingers 7.12502
lthumb 3.01787 46.8711
rfemur -34.6437 13.1043 12.6003
rtibia 53.8308
rfoot -6.12145 13.4127
rtoes 2.58308
lfemur -17.5341 -21.6228 -15.1862
ltibia 25.4978
lfoot -9.65953 -8.3928
ltoes 0.705133
148
root 5.42754 18.0554 2.86536 -8.03684 19.502 -1.9061
lowerback 14.4139 -2.13197 -1.18392
upperback 1.26947 -2.93783 0.891774
thorax -6.62473 -1.38288 2.19404
lowerneck -14.0784 -0.0411498 2.14373
upperneck 35.2562 -0.510712 -0.156014
head 14.4754 0.102719 -0.511246
rclavicle -6.32857e-014 8.17502e-015
rhumerus -31.2572 4.43002 -85.1233
rradius 41.5876
rwrist -15.4195
rhand -41.561 -0.127821
rfingers 7.12502
rthumb -14.4722 -29.6031
lclavicle -6.32857e-014 8.17502e-015
lhumerus -26.3595 -10.9872 87.4693
lradius 44.5955
lwrist 29.7432
lhand -22.9704 16.4885
lfingers 7.12502
lthumb 3.47164 46.4399
rfemur -34.4283 12.9722 12.5875
rtibia 53.642
rfoot -5.44571 12.9676
rtoes 2.65183
lfemur -17.375 -20.0977 -15.5991
ltibia 27.6362
lfoot -8.18859 -7.90793
ltoes -2.21985
149
root 5.461 18.0115 3.05615 -8.69873 19.3401 -2.04632
lowerback 14.6983 -2.11834 -1.27415
upperback 1.44378 -2.93956 0.821668
thorax -6.59548 -1.38301 2.17899
lowerneck -13.8962 -0.117908 2.06142
upperneck 35.1428 -0.614185 -0.107194
head 14.3801 0.0509971 -0.492874
rclavicle -2.7833e-014 -1.11816e-014
rhumerus -31.5722 4.17995 -85.3207
rradius 41.57
rwrist -15.4492
rhand -41.5917 -0.134352
rfingers 7.12502
rthumb -14.5018 -29.6075
lclavicle -2.7833e-014 -1.11816e-014
lhumerus -25.7639 -11.0336 87.6549
lradius 43.2905
lwrist 28.6347
lhand -22.5065 15.9753
lfingers 7.12502
lthumb 3.91963 45.919
rfemur -34.3079 12.9145 12.534
rtibia 53.5096
rfoot -4.82501 12.4912
rtoes 2.68069
lfemur -17.1975 -18.6303 -15.9369
ltibia 29.8075
lfoot -7.14189 -8.07313
ltoes -4.92174
150
root 5.49205 17.9689 3.24891 -9.2757 19.1567 -2.13561
lowerback 14.8896 -2.07054 -1.40171
upperback 1.59948 -2.90321 0.735173
thorax -6.53487 -1.36447 2.15619
lowerneck -13.7282 -0.204785 1.96118
upperneck 35.0951 -0.726211 -0.0607609
head 14.3187 -0.0060518 -0.473712
rclavicle -1.7813e-014 -9.34288e-015
rhumerus -31.8966 3.80438 -85.4994
rradius 41.4544
rwrist -15.4059
rhand -41.6312 -0.149047
rfingers 7.12502
rthumb -14.5399 -29.6195
lclavicle -1.7813e-014 -9.34288e-015
lhumerus -25.1327 -11.0768 87.8346
lradius 41.8765
lwrist 27.4114
lhand -22.0568 15.4052
lfingers 7.12502
lthumb 4.35392 45.3404
rfemur -34.2577 12.9338 12.4323
rtibia 53.3891
rfoot -4.26599 12.0008
rtoes 2.6959
lfemur -16.9919 -17.2597 -16.2052
ltibia 31.8849
lfoot -6.57825 -8.71273
ltoes -7.22659
